:SAMPLES-PER-SECOND 30
:FULLY-SPECIFIED
:DEGREES
34
root  -64.1782 38.1492 -19.9109 28.8027 3.99843 2.58161
RightUpLeg  -62.2974 -18.3605 14.1744
RightLeg  33.5585 0.972944 0.438085
RightFoot  -1.6201 0.842156 -9.99364
RightToes  0.00048216 0.542163 -0.142577
Spine  62.4632 -7.8671 12.882
Spine1  3.99328 0.744811 -3.73436
HEad  -36.3417 -9.43897 0.826887
LeftShoulder1  11.0521 -25.3922 -32.0312
LeftArm  -31.7533 -63.518 -18.1975
LeftForeArm  22.4126 -2.09173 -3.41012
LeftHand  -0.25398 0.0180481 5.50724
RightShoulder  5.6009 15.8909 22.5972
RightArm  -44.5826 57.8085 -0.770917
RightForeArm  -1.06883 -2.43775 3.63629
RightHand  -1.16354 5.78157 -12.4511
LeftUpLeg  -60.2777 18.7413 -20.49
LeftLeg  29.3423 2.89229 2.09572
LeftFoot  -2.22278 -0.504941 6.49687
LeftToes  1.06246e-005 4.65855e-005 -8.185e-006
35
root  -64.3291 37.7179 -19.7495 30.9268 4.17833 2.108
RightUpLeg  -65.7573 -16.9687 15.1662
RightLeg  36.4491 0.0836717 -0.202053
RightFoot  -3.12098 0.723775 -10.3298
RightToes  0.00048216 0.542163 -0.142577
Spine  64.3742 -7.57569 12.7872
Spine1  3.18639 1.14051 -3.83082
HEad  -39.6007 -10.1058 3.60459
LeftShoulder1  11.0729 -26.1802 -31.0597
LeftArm  -39.722 -67.9893 -10.6125
LeftForeArm  19.1495 -2.39253 -2.97364
LeftHand  -0.25398 0.0180481 5.50724
RightShoulder  5.52483 15.9936 22.0212
RightArm  -52.3513 60.1219 -9.09651
RightForeArm  -2.81539 -1.07843 3.52551
RightHand  -1.12267 6.18109 -11.6319
LeftUpLeg  -64.773 18.6799 -20.9907
LeftLeg  33.0198 2.3171 1.97905
LeftFoot  -2.7976 -0.421236 5.87065
LeftToes  1.06246e-005 4.65855e-005 -8.185e-006
36
root  -64.4586 37.3226 -19.5987 32.7701 4.24866 1.71728
RightUpLeg  -68.8206 -15.8684 16.1579
RightLeg  39.0204 -0.444575 -0.668201
RightFoot  -4.40568 0.64384 -11.0734
RightToes  0.00048216 0.542163 -0.142577
Spine  66.3402 -7.36637 12.4254
Spine1  2.20731 1.54794 -4.32735
HEad  -41.0412 -10.2772 4.71278
LeftShoulder1  11.0014 -26.7504 -30.0934
LeftArm  -48.9811 -71.2864 -1.73687
LeftForeArm  15.8745 -2.79456 -2.58967
LeftHand  -0.25398 0.0180481 5.50724
RightShoulder  5.50406 16.0938 21.7548
RightArm  -59.8154 61.6395 -16.7429
RightForeArm  -5.66225 -0.114645 3.43262
RightHand  -1.08546 6.33522 -11.1233
LeftUpLeg  -68.4479 18.5019 -21.532
LeftLeg  35.9178 2.1867 2.07269
LeftFoot  -3.64486 -0.436543 6.82193
LeftToes  1.06246e-005 4.65855e-005 -8.185e-006
37
root  -64.5689 36.9664 -19.4543 34.4296 4.45397 1.71369
RightUpLeg  -71.696 -15.3581 17.0258
RightLeg  41.3886 -0.72762 -0.984372
RightFoot  -5.62036 0.563105 -11.9691
RightToes  0.00048216 0.542163 -0.142577
Spine  68.1128 -7.31257 12.1002
Spine1  0.792889 1.82706 -5.12164
HEad  -41.7483 -10.3634 5.35807
LeftShoulder1  10.9953 -27.6313 -29.014
LeftArm  -57.6791 -73.3398 6.91714
LeftForeArm  13.2987 -2.9474 -2.37688
LeftHand  -0.25398 0.0180481 5.50724
RightShoulder  5.73556 16.3762 22.5608
RightArm  -66.0775 61.9676 -23.8194
RightForeArm  -8.33727 0.49434 3.4291
RightHand  -0.920765 6.46695 -9.40936
LeftUpLeg  -71.2625 17.7927 -21.8736
LeftLeg  38.3016 2.45253 2.4546
LeftFoot  -5.01675 -0.377042 7.3401
LeftToes  1.06246e-005 4.65855e-005 -8.185e-006
38
root  -64.6769 36.6582 -19.3115 35.8486 4.79911 1.83758
RightUpLeg  -74.1447 -15.1169 17.7936
RightLeg  43.4052 -0.971908 -1.2958
RightFoot  -6.76331 0.458903 -12.5462
RightToes  0.00048216 0.542163 -0.142577
Spine  69.674 -7.21778 12.0369
Spine1  -0.914665 2.19135 -5.97272
HEad  -42.2151 -10.8046 6.15464
LeftShoulder1  11.0474 -28.9225 -27.6795
LeftArm  -64.0004 -74.4316 12.6668
LeftForeArm  11.9168 -3.3876 -2.10987
LeftHand  -0.25398 0.0180481 5.50724
RightShoulder  6.10244 16.5411 24.2638
RightArm  -70.5257 61.2012 -29.5608
RightForeArm  -10.4666 1.37199 3.5121
RightHand  -0.680393 6.9888 -6.81948
LeftUpLeg  -73.6137 17.2276 -22.2517
LeftLeg  40.2863 2.33627 2.50594
LeftFoot  -6.10302 -0.27767 6.86696
LeftToes  1.06246e-005 4.65855e-005 -8.185e-006
39
root  -64.7899 36.4098 -19.174 36.9285 5.10319 1.71493
RightUpLeg  -75.9223 -14.822 18.6591
RightLeg  44.9286 -1.15795 -1.55918
RightFoot  -7.67559 0.358684 -12.7502
RightToes  0.00048216 0.542163 -0.142577
Spine  70.682 -6.85512 11.0901
Spine1  -0.650374 1.85041 -5.17069
HEad  -43.5707 -9.59107 6.08934
LeftShoulder1  10.2975 -27.8606 -26.4553
LeftArm  -74.715 -75.5994 22.7912
LeftForeArm  10.3792 -4.58923 -1.82273
LeftHand  -0.25398 0.0180481 5.50724
RightShoulder  5.75053 17.3361 21.2057
RightArm  -74.6163 60.9509 -30.3093
RightForeArm  -11.9389 2.78384 2.62023
RightHand  -0.538093 7.90682 -5.15423
LeftUpLeg  -75.726 17.3717 -22.825
LeftLeg  41.9486 1.66493 1.99822
LeftFoot  -6.72232 -0.226914 6.63202
LeftToes  1.06246e-005 4.65855e-005 -8.185e-006
40
root  -64.8911 36.222 -19.0509 37.7091 5.38264 1.39722
RightUpLeg  -77.1694 -14.5873 19.6854
RightLeg  46.0264 -1.26977 -1.74047
RightFoot  -8.36017 0.27967 -12.8397
RightToes  0.00048216 0.542163 -0.142577
Spine  71.9337 -6.45758 10.5499
Spine1  -1.41764 2.1135 -5.28409
HEad  -43.9509 -9.48455 6.62219
LeftShoulder1  10.0957 -27.9651 -25.6713
LeftArm  -79.6408 -75.9315 27.2777
LeftForeArm  10.1193 -5.95626 -1.76086
LeftHand  -0.25398 0.0180481 5.50724
RightShoulder  5.53159 17.0466 20.4952
RightArm  -75.5475 60.6695 -30.3051
RightForeArm  -14.057 5.1052 2.85261
RightHand  -0.574311 8.85091 -5.15735
LeftUpLeg  -77.4233 17.7919 -23.2808
LeftLeg  43.2849 1.01565 1.43159
LeftFoot  -7.39875 -0.193118 6.89916
LeftToes  1.06246e-005 4.65855e-005 -8.185e-006
41
root  -64.9592 36.0909 -18.9506 38.348 5.79978 1.14047
RightUpLeg  -78.1362 -14.4923 20.592
RightLeg  46.7759 -1.48865 -2.03332
RightFoot  -8.91846 0.215587 -12.9605
RightToes  0.00048216 0.542163 -0.142577
Spine  72.8632 -6.25627 10.0978
Spine1  -2.01446 2.16355 -5.39121
HEad  -44.1318 -9.08385 6.81965
LeftShoulder1  10.0087 -28.0106 -25.3356
LeftArm  -82.739 -75.9579 31.2543
LeftForeArm  9.59927 -6.87657 -2.15516
LeftHand  -0.25398 0.0180481 5.50724
RightShoulder  5.28149 16.7379 19.6173
RightArm  -75.1486 60.626 -29.0106
RightForeArm  -15.9245 7.41545 3.28579
RightHand  -0.614288 9.5233 -5.27699
LeftUpLeg  -78.5754 17.8125 -23.3655
LeftLeg  44.1677 0.862445 1.30977
LeftFoot  -8.1132 -0.146455 6.91757
LeftToes  1.06246e-005 4.65855e-005 -8.185e-006
42
root  -64.992 36.0177 -18.8759 38.948 6.30343 1.0028
RightUpLeg  -78.8499 -14.3101 21.0425
RightLeg  47.1353 -1.88912 -2.5188
RightFoot  -9.26214 0.176593 -13.0891
RightToes  0.00048216 0.542163 -0.142577
Spine  73.3454 -6.28506 9.87388
Spine1  -2.31211 2.02567 -5.54874
HEad  -44.1834 -8.26194 6.13751
LeftShoulder1  10.0162 -28.0812 -25.2842
LeftArm  -83.7741 -75.9099 33.0167
LeftForeArm  8.73367 -8.0272 -2.60406
LeftHand  -0.25398 0.0180481 5.50724
RightShoulder  5.20004 16.7049 19.2297
RightArm  -74.9982 60.524 -27.4932
RightForeArm  -16.9594 9.54703 3.52627
RightHand  -0.48775 9.76672 -4.23407
LeftUpLeg  -79.415 17.5124 -23.3944
LeftLeg  44.6164 1.03377 1.50646
LeftFoot  -8.31849 -0.125168 6.64079
LeftToes  1.06246e-005 4.65855e-005 -8.185e-006
43
root  -64.999 35.9998 -18.8237 39.5169 6.66821 0.918956
RightUpLeg  -79.3046 -13.9986 21.1344
RightLeg  47.1027 -2.2345 -2.91343
RightFoot  -9.25957 0.178533 -13.1779
RightToes  0.00048216 0.542163 -0.142577
Spine  73.479 -6.37826 9.63759
Spine1  -2.20958 1.82013 -5.77171
HEad  -44.3427 -7.08579 4.88199
LeftShoulder1  10.0677 -27.9848 -25.5584
LeftArm  -83.2748 -75.8916 31.6758
LeftForeArm  7.90262 -10.3288 -2.70544
LeftHand  -0.25398 0.0180481 5.50724
RightShoulder  5.33982 16.9012 19.6926
RightArm  -75.7792 60.4004 -26.291
RightForeArm  -17.0365 12.0311 3.63124
RightHand  -0.278929 9.7012 -2.65332
LeftUpLeg  -80.2171 17.3945 -23.8083
LeftLeg  44.8467 1.03243 1.5156
LeftFoot  -7.94991 -0.147183 6.57966
LeftToes  1.06246e-005 4.65855e-005 -8.185e-006
